<?xml version="1.0" encoding="UTF-8" standalone="no"?>
<!DOCTYPE svg PUBLIC "-//W3C//DTD SVG 1.1//EN"
 "http://www.w3.org/Graphics/SVG/1.1/DTD/svg11.dtd">
<!-- Generated by graphviz version 2.50.0 (20211204.2007)
 -->
<!-- Title: G Pages: 1 -->
<svg width="1745pt" height="983pt"
 viewBox="0.00 0.00 1744.86 982.91" xmlns="http://www.w3.org/2000/svg" xmlns:xlink="http://www.w3.org/1999/xlink">
<g id="graph0" class="graph" transform="scale(1 1) rotate(0) translate(4 978.91)">
<title>G</title><style>.edge>path:hover{stroke-width:8}</style>
<polygon fill="white" stroke="transparent" points="-4,4 -4,-978.91 1740.86,-978.91 1740.86,4 -4,4"/>
<!-- check -->
<g id="node1" class="node">
<title>check</title><style>.edge>path:hover{stroke-width:8}</style>
<ellipse fill="#9d4343" stroke="black" cx="466.8" cy="-90" rx="27" ry="18"/>
<text text-anchor="middle" x="466.8" y="-87.5" font-family="Helvetica,sans-Serif" font-size="10.00" fill="#ffffff">check</text>
</g>
<!-- main -->
<g id="node4" class="node">
<title>main</title><style>.edge>path:hover{stroke-width:8}</style>
<ellipse fill="#9eb34c" stroke="black" cx="466.8" cy="-18" rx="27" ry="18"/>
<text text-anchor="middle" x="466.8" y="-15.5" font-family="Helvetica,sans-Serif" font-size="10.00" fill="#000000">main</text>
</g>
<!-- check&#45;&gt;main -->
<g id="edge1" class="edge">
<title>check&#45;&gt;main</title><style>.edge>path:hover{stroke-width:8}</style>
<path fill="none" stroke="black" d="M466.8,-71.7C466.8,-63.98 466.8,-54.71 466.8,-46.11"/>
<polygon fill="#9d4343" stroke="black" points="470.3,-46.1 466.8,-36.1 463.3,-46.1 470.3,-46.1"/>
</g>
<!-- check_lint -->
<g id="node2" class="node">
<title>check_lint</title><style>.edge>path:hover{stroke-width:8}</style>
<ellipse fill="#b34c4c" stroke="black" cx="404.8" cy="-165.21" rx="34.96" ry="18"/>
<text text-anchor="middle" x="404.8" y="-162.71" font-family="Helvetica,sans-Serif" font-size="10.00" fill="#ffffff">check.lint</text>
</g>
<!-- check_lint&#45;&gt;check -->
<g id="edge2" class="edge">
<title>check_lint&#45;&gt;check</title><style>.edge>path:hover{stroke-width:8}</style>
<path fill="none" stroke="black" d="M418.25,-148.33C426.73,-138.31 437.83,-125.21 447.27,-114.06"/>
<polygon fill="#b34c4c" stroke="black" points="450,-116.25 453.79,-106.35 444.66,-111.72 450,-116.25"/>
</g>
<!-- check_parse_requirements -->
<g id="node3" class="node">
<title>check_parse_requirements</title><style>.edge>path:hover{stroke-width:8}</style>
<ellipse fill="#b34c4c" stroke="black" cx="529.8" cy="-165.21" rx="72.25" ry="21.43"/>
<text text-anchor="middle" x="529.8" y="-168.21" font-family="Helvetica,sans-Serif" font-size="10.00" fill="#ffffff">check.</text>
<text text-anchor="middle" x="529.8" y="-157.21" font-family="Helvetica,sans-Serif" font-size="10.00" fill="#ffffff">parse_requirements</text>
</g>
<!-- check_parse_requirements&#45;&gt;check -->
<g id="edge3" class="edge">
<title>check_parse_requirements&#45;&gt;check</title><style>.edge>path:hover{stroke-width:8}</style>
<path fill="none" stroke="black" d="M512.58,-144.21C504.5,-134.81 494.82,-123.57 486.45,-113.84"/>
<polygon fill="#b34c4c" stroke="black" points="488.97,-111.4 479.79,-106.1 483.66,-115.97 488.97,-111.4"/>
</g>
<!-- numpy -->
<g id="node5" class="node">
<title>numpy</title><style>.edge>path:hover{stroke-width:8}</style>
<ellipse fill="#40c073" stroke="black" cx="699.8" cy="-534.85" rx="27.16" ry="18"/>
<text text-anchor="middle" x="699.8" y="-532.35" font-family="Helvetica,sans-Serif" font-size="10.00" fill="#000000">numpy</text>
</g>
<!-- pandas -->
<g id="node6" class="node">
<title>pandas</title><style>.edge>path:hover{stroke-width:8}</style>
<ellipse fill="#033e95" stroke="black" cx="644.8" cy="-462.85" rx="28.01" ry="18"/>
<text text-anchor="middle" x="644.8" y="-460.35" font-family="Helvetica,sans-Serif" font-size="10.00" fill="#ffffff">pandas</text>
</g>
<!-- numpy&#45;&gt;pandas -->
<g id="edge4" class="edge">
<title>numpy&#45;&gt;pandas</title><style>.edge>path:hover{stroke-width:8}</style>
<path fill="none" stroke="black" d="M687.86,-518.66C680.68,-509.53 671.39,-497.7 663.28,-487.38"/>
<polygon fill="#40c073" stroke="black" points="666.02,-485.2 657.09,-479.5 660.51,-489.52 666.02,-485.2"/>
</g>
<!-- pandas&#45;&gt;check -->
<g id="edge5" class="edge">
<title>pandas&#45;&gt;check</title><style>.edge>path:hover{stroke-width:8}</style>
<path fill="none" stroke="black" d="M629.8,-242.64C604.06,-206.16 639.7,-178.03 610.8,-144 584.03,-112.49 536.79,-99.71 503.74,-94.52"/>
<polygon fill="#033e95" stroke="black" points="503.94,-91.02 493.55,-93.09 502.97,-97.95 503.94,-91.02"/>
</g>
<!-- pandas&#45;&gt;check_lint -->
<g id="edge6" class="edge">
<title>pandas&#45;&gt;check_lint</title><style>.edge>path:hover{stroke-width:8}</style>
<path fill="none" stroke="black" d="M629.8,-242.64C591.49,-167.62 527.45,-216.56 448.8,-186.43 445.48,-185.15 442.05,-183.75 438.65,-182.3"/>
<polygon fill="#033e95" stroke="black" points="439.78,-178.97 429.22,-178.12 436.95,-185.37 439.78,-178.97"/>
<path fill="none" stroke="black" d="M647.89,-444.88C653.99,-406.67 664.17,-311.97 629.8,-244.64"/>
</g>
<!-- pandas&#45;&gt;check_parse_requirements -->
<g id="edge7" class="edge">
<title>pandas&#45;&gt;check_parse_requirements</title><style>.edge>path:hover{stroke-width:8}</style>
<path fill="none" stroke="black" d="M629.8,-242.64C618.01,-219.57 595.7,-201.47 575.13,-188.69"/>
<polygon fill="#033e95" stroke="black" points="576.84,-185.64 566.46,-183.54 573.27,-191.66 576.84,-185.64"/>
</g>
<!-- tqdm_std -->
<g id="node41" class="node">
<title>tqdm_std</title><style>.edge>path:hover{stroke-width:8}</style>
<ellipse fill="#a723c8" stroke="black" cx="312.8" cy="-318.85" rx="32.25" ry="18"/>
<text text-anchor="middle" x="312.8" y="-316.35" font-family="Helvetica,sans-Serif" font-size="10.00" fill="#ffffff">tqdm.std</text>
</g>
<!-- pandas&#45;&gt;tqdm_std -->
<g id="edge8" class="edge">
<title>pandas&#45;&gt;tqdm_std</title><style>.edge>path:hover{stroke-width:8}</style>
<path fill="none" stroke="black" d="M616.69,-460.92C541.89,-457.75 341.38,-444.39 308.8,-391.85"/>
</g>
<!-- pandas__config -->
<g id="node7" class="node">
<title>pandas__config</title><style>.edge>path:hover{stroke-width:8}</style>
<ellipse fill="#316cc4" stroke="black" cx="682.8" cy="-829.14" rx="48.04" ry="18"/>
<text text-anchor="middle" x="682.8" y="-826.64" font-family="Helvetica,sans-Serif" font-size="10.00" fill="#ffffff">pandas._config</text>
</g>
<!-- pandas__config&#45;&gt;pandas -->
<g id="edge9" class="edge">
<title>pandas__config&#45;&gt;pandas</title><style>.edge>path:hover{stroke-width:8}</style>
<path fill="none" stroke="black" d="M705.42,-813.02C715.72,-806.37 728.19,-798.66 739.8,-792.37 773.37,-774.19 795.06,-787.05 817.8,-756.37 854.54,-706.8 860.86,-675.67 836.8,-618.84"/>
</g>
<!-- pandas_core_config_init -->
<g id="node22" class="node">
<title>pandas_core_config_init</title><style>.edge>path:hover{stroke-width:8}</style>
<ellipse fill="#406296" stroke="black" cx="714.8" cy="-617.84" rx="42.35" ry="28.98"/>
<text text-anchor="middle" x="714.8" y="-626.34" font-family="Helvetica,sans-Serif" font-size="10.00" fill="#ffffff">pandas.</text>
<text text-anchor="middle" x="714.8" y="-615.34" font-family="Helvetica,sans-Serif" font-size="10.00" fill="#ffffff">core.</text>
<text text-anchor="middle" x="714.8" y="-604.34" font-family="Helvetica,sans-Serif" font-size="10.00" fill="#ffffff">config_init</text>
</g>
<!-- pandas__config&#45;&gt;pandas_core_config_init -->
<g id="edge10" class="edge">
<title>pandas__config&#45;&gt;pandas_core_config_init</title><style>.edge>path:hover{stroke-width:8}</style>
<path fill="none" stroke="black" d="M684.63,-811.08C687.65,-783.88 694.1,-729.01 701.8,-682.84 703.22,-674.32 704.94,-665.2 706.67,-656.6"/>
<polygon fill="#316cc4" stroke="black" points="710.1,-657.3 708.67,-646.8 703.24,-655.89 710.1,-657.3"/>
</g>
<!-- pandas__libs -->
<g id="node8" class="node">
<title>pandas__libs</title><style>.edge>path:hover{stroke-width:8}</style>
<ellipse fill="#2469d0" stroke="black" cx="338.8" cy="-956.91" rx="41.59" ry="18"/>
<text text-anchor="middle" x="338.8" y="-954.41" font-family="Helvetica,sans-Serif" font-size="10.00" fill="#ffffff">pandas._libs</text>
</g>
<!-- pandas__libs&#45;&gt;pandas -->
<g id="edge11" class="edge">
<title>pandas__libs&#45;&gt;pandas</title><style>.edge>path:hover{stroke-width:8}</style>
<path fill="none" stroke="black" d="M440.8,-616.84C453.48,-583.16 414.66,-560.6 440.8,-535.85"/>
<path fill="none" stroke="black" d="M338.8,-901.91C338.04,-876.31 306.37,-888.23 293.8,-865.91 261.83,-809.17 251.34,-781.37 274.8,-720.61"/>
<path fill="none" stroke="black" d="M338.97,-938.73C339.04,-928.35 339.04,-914.87 338.8,-902.91"/>
<path fill="none" stroke="black" d="M274.8,-718.61C281.14,-701.76 279.78,-694.13 293.8,-682.84 339.81,-645.75 373.85,-681.38 421.8,-646.84 433.99,-638.05 435.5,-632.92 440.8,-618.84"/>
</g>
<!-- pandas_core_api -->
<g id="node17" class="node">
<title>pandas_core_api</title><style>.edge>path:hover{stroke-width:8}</style>
<ellipse fill="#3a5988" stroke="black" cx="504.8" cy="-617.84" rx="36.12" ry="28.98"/>
<text text-anchor="middle" x="504.8" y="-626.34" font-family="Helvetica,sans-Serif" font-size="10.00" fill="#ffffff">pandas.</text>
<text text-anchor="middle" x="504.8" y="-615.34" font-family="Helvetica,sans-Serif" font-size="10.00" fill="#ffffff">core.</text>
<text text-anchor="middle" x="504.8" y="-604.34" font-family="Helvetica,sans-Serif" font-size="10.00" fill="#ffffff">api</text>
</g>
<!-- pandas__libs&#45;&gt;pandas_core_api -->
<g id="edge12" class="edge">
<title>pandas__libs&#45;&gt;pandas_core_api</title><style>.edge>path:hover{stroke-width:8}</style>
<path fill="none" stroke="black" d="M338.8,-901.91C338.8,-876.3 371.22,-888.23 383.8,-865.91 415.76,-809.17 369.57,-776.62 402.8,-720.61"/>
</g>
<!-- pandas_tseries_offsets -->
<g id="node31" class="node">
<title>pandas_tseries_offsets</title><style>.edge>path:hover{stroke-width:8}</style>
<ellipse fill="#316cc4" stroke="black" cx="338.8" cy="-829.14" rx="36.12" ry="28.98"/>
<text text-anchor="middle" x="338.8" y="-837.64" font-family="Helvetica,sans-Serif" font-size="10.00" fill="#ffffff">pandas.</text>
<text text-anchor="middle" x="338.8" y="-826.64" font-family="Helvetica,sans-Serif" font-size="10.00" fill="#ffffff">tseries.</text>
<text text-anchor="middle" x="338.8" y="-815.64" font-family="Helvetica,sans-Serif" font-size="10.00" fill="#ffffff">offsets</text>
</g>
<!-- pandas__libs&#45;&gt;pandas_tseries_offsets -->
<g id="edge13" class="edge">
<title>pandas__libs&#45;&gt;pandas_tseries_offsets</title><style>.edge>path:hover{stroke-width:8}</style>
<path fill="none" stroke="black" d="M338.8,-901.91C338.8,-891.06 338.8,-879.27 338.8,-868.45"/>
<polygon fill="#2469d0" stroke="black" points="342.3,-868.44 338.8,-858.44 335.3,-868.44 342.3,-868.44"/>
</g>
<!-- pandas__libs_hashtable -->
<g id="node9" class="node">
<title>pandas__libs_hashtable</title><style>.edge>path:hover{stroke-width:8}</style>
<ellipse fill="#537bb6" stroke="black" cx="944.8" cy="-617.84" rx="41.94" ry="28.98"/>
<text text-anchor="middle" x="944.8" y="-626.34" font-family="Helvetica,sans-Serif" font-size="10.00" fill="#ffffff">pandas.</text>
<text text-anchor="middle" x="944.8" y="-615.34" font-family="Helvetica,sans-Serif" font-size="10.00" fill="#ffffff">_libs.</text>
<text text-anchor="middle" x="944.8" y="-604.34" font-family="Helvetica,sans-Serif" font-size="10.00" fill="#ffffff">hashtable</text>
</g>
<!-- pandas__libs_hashtable&#45;&gt;pandas -->
<g id="edge14" class="edge">
<title>pandas__libs_hashtable&#45;&gt;pandas</title><style>.edge>path:hover{stroke-width:8}</style>
<path fill="none" stroke="black" d="M976.43,-598.55C1009.62,-578.33 1055.15,-547.14 1040.8,-535.85"/>
</g>
<!-- pandas__libs_lib -->
<g id="node10" class="node">
<title>pandas__libs_lib</title><style>.edge>path:hover{stroke-width:8}</style>
<ellipse fill="#537bb6" stroke="black" cx="1040.8" cy="-617.84" rx="36.12" ry="28.98"/>
<text text-anchor="middle" x="1040.8" y="-626.34" font-family="Helvetica,sans-Serif" font-size="10.00" fill="#ffffff">pandas.</text>
<text text-anchor="middle" x="1040.8" y="-615.34" font-family="Helvetica,sans-Serif" font-size="10.00" fill="#ffffff">_libs.</text>
<text text-anchor="middle" x="1040.8" y="-604.34" font-family="Helvetica,sans-Serif" font-size="10.00" fill="#ffffff">lib</text>
</g>
<!-- pandas__libs_lib&#45;&gt;pandas -->
<g id="edge15" class="edge">
<title>pandas__libs_lib&#45;&gt;pandas</title><style>.edge>path:hover{stroke-width:8}</style>
<path fill="none" stroke="black" d="M1050.33,-589.52C1054.82,-571.1 1056.27,-548.02 1040.8,-535.85"/>
</g>
<!-- pandas__libs_tslib -->
<g id="node11" class="node">
<title>pandas__libs_tslib</title><style>.edge>path:hover{stroke-width:8}</style>
<ellipse fill="#537bb6" stroke="black" cx="1130.8" cy="-617.84" rx="36.12" ry="28.98"/>
<text text-anchor="middle" x="1130.8" y="-626.34" font-family="Helvetica,sans-Serif" font-size="10.00" fill="#ffffff">pandas.</text>
<text text-anchor="middle" x="1130.8" y="-615.34" font-family="Helvetica,sans-Serif" font-size="10.00" fill="#ffffff">_libs.</text>
<text text-anchor="middle" x="1130.8" y="-604.34" font-family="Helvetica,sans-Serif" font-size="10.00" fill="#ffffff">tslib</text>
</g>
<!-- pandas__libs_tslib&#45;&gt;pandas -->
<g id="edge16" class="edge">
<title>pandas__libs_tslib&#45;&gt;pandas</title><style>.edge>path:hover{stroke-width:8}</style>
<path fill="none" stroke="black" d="M1106.98,-595.38C1080.61,-571.62 1041.67,-536.54 1040.8,-535.85"/>
</g>
<!-- pandas__version -->
<g id="node12" class="node">
<title>pandas__version</title><style>.edge>path:hover{stroke-width:8}</style>
<ellipse fill="#4778c2" stroke="black" cx="1187.8" cy="-829.14" rx="36.54" ry="21.43"/>
<text text-anchor="middle" x="1187.8" y="-832.14" font-family="Helvetica,sans-Serif" font-size="10.00" fill="#ffffff">pandas.</text>
<text text-anchor="middle" x="1187.8" y="-821.14" font-family="Helvetica,sans-Serif" font-size="10.00" fill="#ffffff">_version</text>
</g>
<!-- pandas__version&#45;&gt;pandas -->
<g id="edge17" class="edge">
<title>pandas__version&#45;&gt;pandas</title><style>.edge>path:hover{stroke-width:8}</style>
<path fill="none" stroke="black" d="M1187.15,-807.64C1186.91,-785.78 1187.85,-750.3 1194.8,-720.61"/>
<path fill="none" stroke="black" d="M1194.8,-718.61C1208.07,-661.85 1213.68,-633.14 1175.8,-588.85 1140.71,-547.83 1106.76,-579.46 1059.8,-552.85 1049.94,-547.27 1049.74,-542.81 1040.8,-535.85"/>
</g>
<!-- pandas_util__print_versions -->
<g id="node33" class="node">
<title>pandas_util__print_versions</title><style>.edge>path:hover{stroke-width:8}</style>
<ellipse fill="#466ca4" stroke="black" cx="1279.8" cy="-617.84" rx="57.05" ry="28.98"/>
<text text-anchor="middle" x="1279.8" y="-626.34" font-family="Helvetica,sans-Serif" font-size="10.00" fill="#ffffff">pandas.</text>
<text text-anchor="middle" x="1279.8" y="-615.34" font-family="Helvetica,sans-Serif" font-size="10.00" fill="#ffffff">util.</text>
<text text-anchor="middle" x="1279.8" y="-604.34" font-family="Helvetica,sans-Serif" font-size="10.00" fill="#ffffff">_print_versions</text>
</g>
<!-- pandas__version&#45;&gt;pandas_util__print_versions -->
<g id="edge18" class="edge">
<title>pandas__version&#45;&gt;pandas_util__print_versions</title><style>.edge>path:hover{stroke-width:8}</style>
<path fill="none" stroke="black" d="M1194.8,-718.61C1201.24,-691.03 1221.52,-666.68 1240.65,-648.94"/>
<polygon fill="#4778c2" stroke="black" points="1243.03,-651.51 1248.17,-642.24 1238.38,-646.28 1243.03,-651.51"/>
</g>
<!-- pandas_api -->
<g id="node13" class="node">
<title>pandas_api</title><style>.edge>path:hover{stroke-width:8}</style>
<ellipse fill="#3d6eb8" stroke="black" cx="1106.8" cy="-534.85" rx="37.85" ry="18"/>
<text text-anchor="middle" x="1106.8" y="-532.35" font-family="Helvetica,sans-Serif" font-size="10.00" fill="#ffffff">pandas.api</text>
</g>
<!-- pandas_api&#45;&gt;pandas -->
<g id="edge19" class="edge">
<title>pandas_api&#45;&gt;pandas</title><style>.edge>path:hover{stroke-width:8}</style>
<path fill="none" stroke="black" d="M1077.64,-523.26C1070.26,-520.87 1062.3,-518.55 1054.8,-516.85 920.01,-486.39 756.06,-471.77 683.05,-466.39"/>
<polygon fill="#3d6eb8" stroke="black" points="683.18,-462.89 672.95,-465.67 682.67,-469.88 683.18,-462.89"/>
</g>
<!-- pandas_arrays -->
<g id="node14" class="node">
<title>pandas_arrays</title><style>.edge>path:hover{stroke-width:8}</style>
<ellipse fill="#466ca4" stroke="black" cx="570.8" cy="-534.85" rx="45.83" ry="18"/>
<text text-anchor="middle" x="570.8" y="-532.35" font-family="Helvetica,sans-Serif" font-size="10.00" fill="#ffffff">pandas.arrays</text>
</g>
<!-- pandas_arrays&#45;&gt;pandas -->
<g id="edge20" class="edge">
<title>pandas_arrays&#45;&gt;pandas</title><style>.edge>path:hover{stroke-width:8}</style>
<path fill="none" stroke="black" d="M587.59,-517.97C597.84,-508.27 611.09,-495.74 622.25,-485.18"/>
<polygon fill="#466ca4" stroke="black" points="624.72,-487.66 629.58,-478.25 619.91,-482.57 624.72,-487.66"/>
</g>
<!-- pandas_compat -->
<g id="node15" class="node">
<title>pandas_compat</title><style>.edge>path:hover{stroke-width:8}</style>
<ellipse fill="#316cc4" stroke="black" cx="1291.8" cy="-829.14" rx="48.72" ry="18"/>
<text text-anchor="middle" x="1291.8" y="-826.64" font-family="Helvetica,sans-Serif" font-size="10.00" fill="#ffffff">pandas.compat</text>
</g>
<!-- pandas_compat&#45;&gt;pandas -->
<g id="edge21" class="edge">
<title>pandas_compat&#45;&gt;pandas</title><style>.edge>path:hover{stroke-width:8}</style>
<path fill="none" stroke="black" d="M1428.8,-533.85C1369.02,-488.18 831.95,-469.29 682.97,-464.9"/>
<polygon fill="#316cc4" stroke="black" points="683.02,-461.4 672.92,-464.61 682.82,-468.39 683.02,-461.4"/>
<path fill="none" stroke="black" d="M1364.8,-616.84C1372.21,-603.76 1374.69,-600.82 1383.8,-588.85 1402.5,-564.26 1453.35,-554.61 1428.8,-535.85"/>
<path fill="none" stroke="black" d="M1284.8,-718.61C1287.39,-700.79 1292.54,-696.89 1303.8,-682.84 1319.16,-663.64 1329.41,-665.17 1345.8,-646.84 1355.81,-635.62 1357.38,-631.92 1364.8,-618.84"/>
</g>
<!-- pandas_compat&#45;&gt;pandas_util__print_versions -->
<g id="edge22" class="edge">
<title>pandas_compat&#45;&gt;pandas_util__print_versions</title><style>.edge>path:hover{stroke-width:8}</style>
<path fill="none" stroke="black" d="M1288.47,-810.92C1284.86,-789.61 1280.18,-752.26 1284.8,-720.61"/>
<path fill="none" stroke="black" d="M1284.8,-718.61C1287.73,-698.43 1286.92,-675.74 1285.18,-657.11"/>
<polygon fill="#316cc4" stroke="black" points="1288.63,-656.51 1284.1,-646.93 1281.67,-657.25 1288.63,-656.51"/>
</g>
<!-- pandas_core -->
<g id="node16" class="node">
<title>pandas_core</title><style>.edge>path:hover{stroke-width:8}</style>
<ellipse fill="#106df9" stroke="black" cx="371.8" cy="-617.84" rx="41.41" ry="18"/>
<text text-anchor="middle" x="371.8" y="-615.34" font-family="Helvetica,sans-Serif" font-size="10.00" fill="#ffffff">pandas.core</text>
</g>
<!-- pandas_core&#45;&gt;pandas -->
<g id="edge23" class="edge">
<title>pandas_core&#45;&gt;pandas</title><style>.edge>path:hover{stroke-width:8}</style>
<path fill="none" stroke="black" d="M384.08,-600.43C397.21,-583.39 419.06,-556.43 440.8,-535.85"/>
<path fill="none" stroke="black" d="M440.8,-533.85C487.08,-490.03 562.02,-473.53 607.04,-467.4"/>
<polygon fill="#106df9" stroke="black" points="607.5,-470.87 616.98,-466.15 606.62,-463.93 607.5,-470.87"/>
</g>
<!-- pandas_core&#45;&gt;pandas_arrays -->
<g id="edge24" class="edge">
<title>pandas_core&#45;&gt;pandas_arrays</title><style>.edge>path:hover{stroke-width:8}</style>
<path fill="none" stroke="black" d="M401.16,-604.89C435.44,-590.94 492.34,-567.78 530.68,-552.18"/>
<polygon fill="#106df9" stroke="black" points="532.06,-555.4 540,-548.39 529.42,-548.91 532.06,-555.4"/>
</g>
<!-- pandas_util -->
<g id="node32" class="node">
<title>pandas_util</title><style>.edge>path:hover{stroke-width:8}</style>
<ellipse fill="#3a69b0" stroke="black" cx="374.8" cy="-534.85" rx="37.85" ry="18"/>
<text text-anchor="middle" x="374.8" y="-532.35" font-family="Helvetica,sans-Serif" font-size="10.00" fill="#ffffff">pandas.util</text>
</g>
<!-- pandas_core&#45;&gt;pandas_util -->
<g id="edge25" class="edge">
<title>pandas_core&#45;&gt;pandas_util</title><style>.edge>path:hover{stroke-width:8}</style>
<path fill="none" stroke="black" d="M372.43,-599.67C372.83,-589.04 373.34,-575.15 373.79,-563.05"/>
<polygon fill="#106df9" stroke="black" points="377.29,-563.13 374.16,-553 370.29,-562.87 377.29,-563.13"/>
</g>
<!-- pandas_core&#45;&gt;tqdm_std -->
<g id="edge26" class="edge">
<title>pandas_core&#45;&gt;tqdm_std</title><style>.edge>path:hover{stroke-width:8}</style>
<path fill="none" stroke="black" d="M357.4,-600.74C347.34,-588.5 334.54,-570.77 327.8,-552.85 302.42,-485.42 346.77,-453.08 308.8,-391.85"/>
<path fill="none" stroke="black" d="M308.8,-389.85C300.82,-377.22 301.41,-360.61 304.19,-346.75"/>
<polygon fill="#106df9" stroke="black" points="307.65,-347.33 306.63,-336.79 300.85,-345.66 307.65,-347.33"/>
</g>
<!-- pandas_core_api&#45;&gt;pandas -->
<g id="edge27" class="edge">
<title>pandas_core_api&#45;&gt;pandas</title><style>.edge>path:hover{stroke-width:8}</style>
<path fill="none" stroke="black" d="M644.8,-533.85C643.38,-519.78 643.26,-504.03 643.54,-491.04"/>
<polygon fill="#3a5988" stroke="black" points="647.04,-490.98 643.85,-480.87 640.04,-490.76 647.04,-490.98"/>
<path fill="none" stroke="black" d="M537.63,-605.4C579.78,-589.67 647.27,-560.51 644.8,-535.85"/>
</g>
<!-- pandas_core_arrays -->
<g id="node18" class="node">
<title>pandas_core_arrays</title><style>.edge>path:hover{stroke-width:8}</style>
<ellipse fill="#165eca" stroke="black" cx="542.8" cy="-719.61" rx="36.12" ry="28.98"/>
<text text-anchor="middle" x="542.8" y="-728.11" font-family="Helvetica,sans-Serif" font-size="10.00" fill="#ffffff">pandas.</text>
<text text-anchor="middle" x="542.8" y="-717.11" font-family="Helvetica,sans-Serif" font-size="10.00" fill="#ffffff">core.</text>
<text text-anchor="middle" x="542.8" y="-706.11" font-family="Helvetica,sans-Serif" font-size="10.00" fill="#ffffff">arrays</text>
</g>
<!-- pandas_core_arrays&#45;&gt;pandas -->
<g id="edge28" class="edge">
<title>pandas_core_arrays&#45;&gt;pandas</title><style>.edge>path:hover{stroke-width:8}</style>
<path fill="none" stroke="black" d="M606.8,-616.84C618.04,-578.71 648.76,-575.42 644.8,-535.85"/>
</g>
<!-- pandas_core_arrays&#45;&gt;pandas_arrays -->
<g id="edge29" class="edge">
<title>pandas_core_arrays&#45;&gt;pandas_arrays</title><style>.edge>path:hover{stroke-width:8}</style>
<path fill="none" stroke="black" d="M563.07,-695.53C578.41,-676.45 598.24,-647.86 606.8,-618.84"/>
<path fill="none" stroke="black" d="M606.8,-616.84C612.6,-597.17 602.59,-576.02 591.67,-560.27"/>
<polygon fill="#165eca" stroke="black" points="594.38,-558.05 585.61,-552.12 588.77,-562.23 594.38,-558.05"/>
</g>
<!-- pandas_core_arrays&#45;&gt;pandas_core_api -->
<g id="edge30" class="edge">
<title>pandas_core_arrays&#45;&gt;pandas_core_api</title><style>.edge>path:hover{stroke-width:8}</style>
<path fill="none" stroke="black" d="M532.51,-691.61C528.25,-680.41 523.23,-667.24 518.65,-655.21"/>
<polygon fill="#165eca" stroke="black" points="521.92,-653.96 515.09,-645.86 515.38,-656.45 521.92,-653.96"/>
</g>
<!-- pandas_core_arrays_sparse -->
<g id="node19" class="node">
<title>pandas_core_arrays_sparse</title><style>.edge>path:hover{stroke-width:8}</style>
<ellipse fill="#2d63b4" stroke="black" cx="784.8" cy="-829.14" rx="36.12" ry="36.54"/>
<text text-anchor="middle" x="784.8" y="-843.14" font-family="Helvetica,sans-Serif" font-size="10.00" fill="#ffffff">pandas.</text>
<text text-anchor="middle" x="784.8" y="-832.14" font-family="Helvetica,sans-Serif" font-size="10.00" fill="#ffffff">core.</text>
<text text-anchor="middle" x="784.8" y="-821.14" font-family="Helvetica,sans-Serif" font-size="10.00" fill="#ffffff">arrays.</text>
<text text-anchor="middle" x="784.8" y="-810.14" font-family="Helvetica,sans-Serif" font-size="10.00" fill="#ffffff">sparse</text>
</g>
<!-- pandas_core_arrays_sparse&#45;&gt;pandas -->
<g id="edge31" class="edge">
<title>pandas_core_arrays_sparse&#45;&gt;pandas</title><style>.edge>path:hover{stroke-width:8}</style>
<path fill="none" stroke="black" d="M811.41,-804.15C824.37,-791.15 839.19,-774.15 848.8,-756.37 885.44,-688.55 841.61,-645.6 893.8,-588.85 940.81,-537.73 1095.38,-578.79 1040.8,-535.85"/>
<path fill="none" stroke="black" d="M1040.8,-533.85C985.21,-490.58 771.19,-472.03 683.06,-466.12"/>
<polygon fill="#2d63b4" stroke="black" points="683.16,-462.62 672.95,-465.46 682.71,-469.6 683.16,-462.62"/>
</g>
<!-- pandas_core_arrays_sparse&#45;&gt;pandas_core_arrays -->
<g id="edge32" class="edge">
<title>pandas_core_arrays_sparse&#45;&gt;pandas_core_arrays</title><style>.edge>path:hover{stroke-width:8}</style>
<path fill="none" stroke="black" d="M757.7,-804.34C752.02,-800.01 745.89,-795.79 739.8,-792.37 690.21,-764.61 627.83,-744.01 586.71,-732.17"/>
<polygon fill="#2d63b4" stroke="black" points="587.57,-728.78 576.99,-729.42 585.66,-735.51 587.57,-728.78"/>
</g>
<!-- pandas_core_computation -->
<g id="node20" class="node">
<title>pandas_core_computation</title><style>.edge>path:hover{stroke-width:8}</style>
<ellipse fill="#3b76ce" stroke="black" cx="759.8" cy="-719.61" rx="49.49" ry="28.98"/>
<text text-anchor="middle" x="759.8" y="-728.11" font-family="Helvetica,sans-Serif" font-size="10.00" fill="#ffffff">pandas.</text>
<text text-anchor="middle" x="759.8" y="-717.11" font-family="Helvetica,sans-Serif" font-size="10.00" fill="#ffffff">core.</text>
<text text-anchor="middle" x="759.8" y="-706.11" font-family="Helvetica,sans-Serif" font-size="10.00" fill="#ffffff">computation</text>
</g>
<!-- pandas_core_computation&#45;&gt;pandas -->
<g id="edge33" class="edge">
<title>pandas_core_computation&#45;&gt;pandas</title><style>.edge>path:hover{stroke-width:8}</style>
<path fill="none" stroke="black" d="M836.8,-616.84C800.68,-531.56 654.03,-628.01 644.8,-535.85"/>
<path fill="none" stroke="black" d="M793.5,-698.12C819.79,-679.28 849.85,-649.67 836.8,-618.84"/>
</g>
<!-- pandas_core_computation&#45;&gt;pandas_core_config_init -->
<g id="edge34" class="edge">
<title>pandas_core_computation&#45;&gt;pandas_core_config_init</title><style>.edge>path:hover{stroke-width:8}</style>
<path fill="none" stroke="black" d="M747.5,-691.35C742.45,-680.15 736.53,-667.02 731.12,-655.03"/>
<polygon fill="#3b76ce" stroke="black" points="734.22,-653.4 726.92,-645.73 727.84,-656.28 734.22,-653.4"/>
</g>
<!-- pandas_core_computation_api -->
<g id="node21" class="node">
<title>pandas_core_computation_api</title><style>.edge>path:hover{stroke-width:8}</style>
<ellipse fill="#466ca4" stroke="black" cx="1364.8" cy="-719.61" rx="51.74" ry="36.54"/>
<text text-anchor="middle" x="1364.8" y="-733.61" font-family="Helvetica,sans-Serif" font-size="10.00" fill="#ffffff">pandas.</text>
<text text-anchor="middle" x="1364.8" y="-722.61" font-family="Helvetica,sans-Serif" font-size="10.00" fill="#ffffff">core.</text>
<text text-anchor="middle" x="1364.8" y="-711.61" font-family="Helvetica,sans-Serif" font-size="10.00" fill="#ffffff">computation.</text>
<text text-anchor="middle" x="1364.8" y="-700.61" font-family="Helvetica,sans-Serif" font-size="10.00" fill="#ffffff">api</text>
</g>
<!-- pandas_core_computation_api&#45;&gt;pandas -->
<g id="edge35" class="edge">
<title>pandas_core_computation_api&#45;&gt;pandas</title><style>.edge>path:hover{stroke-width:8}</style>
<path fill="none" stroke="black" d="M1356.6,-683.19C1353.86,-663.07 1353.86,-638.13 1364.8,-618.84"/>
</g>
<!-- pandas_core_config_init&#45;&gt;pandas -->
<g id="edge36" class="edge">
<title>pandas_core_config_init&#45;&gt;pandas</title><style>.edge>path:hover{stroke-width:8}</style>
<path fill="none" stroke="black" d="M685.13,-597.04C667.2,-582.6 647.33,-561.19 644.8,-535.85"/>
</g>
<!-- pandas_core_reshape -->
<g id="node23" class="node">
<title>pandas_core_reshape</title><style>.edge>path:hover{stroke-width:8}</style>
<ellipse fill="#4778c2" stroke="black" cx="1428.8" cy="-617.84" rx="36.12" ry="28.98"/>
<text text-anchor="middle" x="1428.8" y="-626.34" font-family="Helvetica,sans-Serif" font-size="10.00" fill="#ffffff">pandas.</text>
<text text-anchor="middle" x="1428.8" y="-615.34" font-family="Helvetica,sans-Serif" font-size="10.00" fill="#ffffff">core.</text>
<text text-anchor="middle" x="1428.8" y="-604.34" font-family="Helvetica,sans-Serif" font-size="10.00" fill="#ffffff">reshape</text>
</g>
<!-- pandas_core_reshape&#45;&gt;pandas -->
<g id="edge37" class="edge">
<title>pandas_core_reshape&#45;&gt;pandas</title><style>.edge>path:hover{stroke-width:8}</style>
<path fill="none" stroke="black" d="M1438.45,-589.63C1443.12,-571.01 1444.74,-547.64 1428.8,-535.85"/>
</g>
<!-- pandas_core_reshape_api -->
<g id="node24" class="node">
<title>pandas_core_reshape_api</title><style>.edge>path:hover{stroke-width:8}</style>
<ellipse fill="#466ca4" stroke="black" cx="1492.8" cy="-719.61" rx="38.37" ry="36.54"/>
<text text-anchor="middle" x="1492.8" y="-733.61" font-family="Helvetica,sans-Serif" font-size="10.00" fill="#ffffff">pandas.</text>
<text text-anchor="middle" x="1492.8" y="-722.61" font-family="Helvetica,sans-Serif" font-size="10.00" fill="#ffffff">core.</text>
<text text-anchor="middle" x="1492.8" y="-711.61" font-family="Helvetica,sans-Serif" font-size="10.00" fill="#ffffff">reshape.</text>
<text text-anchor="middle" x="1492.8" y="-700.61" font-family="Helvetica,sans-Serif" font-size="10.00" fill="#ffffff">api</text>
</g>
<!-- pandas_core_reshape_api&#45;&gt;pandas -->
<g id="edge38" class="edge">
<title>pandas_core_reshape_api&#45;&gt;pandas</title><style>.edge>path:hover{stroke-width:8}</style>
<path fill="none" stroke="black" d="M1492.81,-682.7C1491.6,-655.79 1487.26,-618.62 1473.8,-588.85 1467.43,-574.77 1441.22,-545.04 1428.8,-535.85"/>
</g>
<!-- pandas_io -->
<g id="node25" class="node">
<title>pandas_io</title><style>.edge>path:hover{stroke-width:8}</style>
<ellipse fill="#2271e7" stroke="black" cx="466.8" cy="-829.14" rx="34.96" ry="18"/>
<text text-anchor="middle" x="466.8" y="-826.64" font-family="Helvetica,sans-Serif" font-size="10.00" fill="#ffffff">pandas.io</text>
</g>
<!-- pandas_io&#45;&gt;pandas -->
<g id="edge39" class="edge">
<title>pandas_io&#45;&gt;pandas</title><style>.edge>path:hover{stroke-width:8}</style>
<path fill="none" stroke="black" d="M459.71,-811.31C451.61,-790.38 439.62,-753.43 440.8,-720.61"/>
<path fill="none" stroke="black" d="M440.8,-718.61C442.38,-674.3 425.17,-660.34 440.8,-618.84"/>
</g>
<!-- pandas_io&#45;&gt;pandas_core_api -->
<g id="edge40" class="edge">
<title>pandas_io&#45;&gt;pandas_core_api</title><style>.edge>path:hover{stroke-width:8}</style>
<path fill="none" stroke="black" d="M440.8,-718.61C441.76,-691.61 458.56,-666.08 474.7,-647.6"/>
<polygon fill="#2271e7" stroke="black" points="477.37,-649.87 481.53,-640.13 472.2,-645.15 477.37,-649.87"/>
</g>
<!-- pandas_io&#45;&gt;pandas_core_config_init -->
<g id="edge41" class="edge">
<title>pandas_io&#45;&gt;pandas_core_config_init</title><style>.edge>path:hover{stroke-width:8}</style>
<path fill="none" stroke="black" d="M484.07,-813.29C492.44,-806.47 502.82,-798.55 512.8,-792.37 544.23,-772.92 558.06,-778.35 587.8,-756.37 628.29,-726.45 666.29,-682.37 689.98,-652.23"/>
<polygon fill="#2271e7" stroke="black" points="692.9,-654.17 696.27,-644.13 687.37,-649.88 692.9,-654.17"/>
</g>
<!-- pandas_io_api -->
<g id="node26" class="node">
<title>pandas_io_api</title><style>.edge>path:hover{stroke-width:8}</style>
<ellipse fill="#466ca4" stroke="black" cx="1564.8" cy="-617.84" rx="43.62" ry="18"/>
<text text-anchor="middle" x="1564.8" y="-615.34" font-family="Helvetica,sans-Serif" font-size="10.00" fill="#ffffff">pandas.io.api</text>
</g>
<!-- pandas_io_api&#45;&gt;pandas -->
<g id="edge42" class="edge">
<title>pandas_io_api&#45;&gt;pandas</title><style>.edge>path:hover{stroke-width:8}</style>
<path fill="none" stroke="black" d="M1536.78,-603.8C1512.39,-591.91 1476.53,-573.16 1447.8,-552.85 1438.54,-546.31 1437.91,-542.59 1428.8,-535.85"/>
</g>
<!-- pandas_io_json -->
<g id="node27" class="node">
<title>pandas_io_json</title><style>.edge>path:hover{stroke-width:8}</style>
<ellipse fill="#2f67bc" stroke="black" cx="1595.8" cy="-719.61" rx="47.19" ry="18"/>
<text text-anchor="middle" x="1595.8" y="-717.11" font-family="Helvetica,sans-Serif" font-size="10.00" fill="#ffffff">pandas.io.json</text>
</g>
<!-- pandas_io_json&#45;&gt;pandas -->
<g id="edge43" class="edge">
<title>pandas_io_json&#45;&gt;pandas</title><style>.edge>path:hover{stroke-width:8}</style>
<path fill="none" stroke="black" d="M1636.8,-533.85C1559.04,-476.25 856.74,-465.85 683.36,-464.16"/>
<polygon fill="#2f67bc" stroke="black" points="683.21,-460.66 673.17,-464.06 683.14,-467.66 683.21,-460.66"/>
<path fill="none" stroke="black" d="M1603.35,-701.8C1621.38,-660.44 1663.51,-555.64 1636.8,-535.85"/>
</g>
<!-- pandas_io_json&#45;&gt;pandas_io_api -->
<g id="edge44" class="edge">
<title>pandas_io_json&#45;&gt;pandas_io_api</title><style>.edge>path:hover{stroke-width:8}</style>
<path fill="none" stroke="black" d="M1590.54,-701.68C1585.75,-686.28 1578.6,-663.28 1573.05,-645.42"/>
<polygon fill="#2f67bc" stroke="black" points="1576.39,-644.36 1570.08,-635.85 1569.7,-646.44 1576.39,-644.36"/>
</g>
<!-- pandas_testing -->
<g id="node28" class="node">
<title>pandas_testing</title><style>.edge>path:hover{stroke-width:8}</style>
<ellipse fill="#4c75b3" stroke="black" cx="1503.8" cy="-534.85" rx="47.19" ry="18"/>
<text text-anchor="middle" x="1503.8" y="-532.35" font-family="Helvetica,sans-Serif" font-size="10.00" fill="#ffffff">pandas.testing</text>
</g>
<!-- pandas_testing&#45;&gt;pandas -->
<g id="edge45" class="edge">
<title>pandas_testing&#45;&gt;pandas</title><style>.edge>path:hover{stroke-width:8}</style>
<path fill="none" stroke="black" d="M1468.59,-522.72C1460.21,-520.44 1451.25,-518.3 1442.8,-516.85 1154.12,-467.58 799.44,-463.52 683.47,-463.62"/>
<polygon fill="#4c75b3" stroke="black" points="683.31,-460.12 673.31,-463.64 683.32,-467.12 683.31,-460.12"/>
</g>
<!-- pandas_tseries -->
<g id="node29" class="node">
<title>pandas_tseries</title><style>.edge>path:hover{stroke-width:8}</style>
<ellipse fill="#3b76ce" stroke="black" cx="568.8" cy="-829.14" rx="47.19" ry="18"/>
<text text-anchor="middle" x="568.8" y="-826.64" font-family="Helvetica,sans-Serif" font-size="10.00" fill="#ffffff">pandas.tseries</text>
</g>
<!-- pandas_tseries&#45;&gt;pandas -->
<g id="edge46" class="edge">
<title>pandas_tseries&#45;&gt;pandas</title><style>.edge>path:hover{stroke-width:8}</style>
<path fill="none" stroke="black" d="M577.59,-811.35C599.79,-767.1 655.56,-643.33 644.8,-535.85"/>
</g>
<!-- pandas_tseries&#45;&gt;pandas_core_api -->
<g id="edge47" class="edge">
<title>pandas_tseries&#45;&gt;pandas_core_api</title><style>.edge>path:hover{stroke-width:8}</style>
<path fill="none" stroke="black" d="M546.47,-813.15C529.55,-800.33 507.59,-780.2 497.8,-756.37 484.68,-724.47 488.57,-684.84 494.47,-656.33"/>
<polygon fill="#3b76ce" stroke="black" points="497.93,-656.89 496.7,-646.37 491.1,-655.36 497.93,-656.89"/>
</g>
<!-- pandas_tseries_api -->
<g id="node30" class="node">
<title>pandas_tseries_api</title><style>.edge>path:hover{stroke-width:8}</style>
<ellipse fill="#466ca4" stroke="black" cx="338.8" cy="-719.61" rx="36.12" ry="28.98"/>
<text text-anchor="middle" x="338.8" y="-728.11" font-family="Helvetica,sans-Serif" font-size="10.00" fill="#ffffff">pandas.</text>
<text text-anchor="middle" x="338.8" y="-717.11" font-family="Helvetica,sans-Serif" font-size="10.00" fill="#ffffff">tseries.</text>
<text text-anchor="middle" x="338.8" y="-706.11" font-family="Helvetica,sans-Serif" font-size="10.00" fill="#ffffff">api</text>
</g>
<!-- pandas_tseries_api&#45;&gt;pandas -->
<g id="edge48" class="edge">
<title>pandas_tseries_api&#45;&gt;pandas</title><style>.edge>path:hover{stroke-width:8}</style>
<path fill="none" stroke="black" d="M364.68,-699.14C381.9,-685.52 404.45,-666.33 421.8,-646.84 431.79,-635.6 435.5,-632.92 440.8,-618.84"/>
</g>
<!-- pandas_tseries_offsets&#45;&gt;pandas -->
<g id="edge49" class="edge">
<title>pandas_tseries_offsets&#45;&gt;pandas</title><style>.edge>path:hover{stroke-width:8}</style>
<path fill="none" stroke="black" d="M313.69,-808.19C290.76,-787.36 262.2,-753.24 274.8,-720.61"/>
</g>
<!-- pandas_tseries_offsets&#45;&gt;pandas_core_api -->
<g id="edge50" class="edge">
<title>pandas_tseries_offsets&#45;&gt;pandas_core_api</title><style>.edge>path:hover{stroke-width:8}</style>
<path fill="none" stroke="black" d="M355.07,-803.17C363.82,-789.49 374.67,-772.16 383.8,-756.37 392.8,-740.79 393.61,-736.09 402.8,-720.61"/>
<path fill="none" stroke="black" d="M402.8,-718.61C412.56,-702.14 413.92,-697.01 426.8,-682.84 439.69,-668.64 455.83,-654.88 470.07,-643.78"/>
<polygon fill="#316cc4" stroke="black" points="472.38,-646.42 478.2,-637.57 468.13,-640.86 472.38,-646.42"/>
</g>
<!-- pandas_tseries_offsets&#45;&gt;pandas_tseries_api -->
<g id="edge51" class="edge">
<title>pandas_tseries_offsets&#45;&gt;pandas_tseries_api</title><style>.edge>path:hover{stroke-width:8}</style>
<path fill="none" stroke="black" d="M338.8,-799.89C338.8,-787.29 338.8,-772.27 338.8,-758.7"/>
<polygon fill="#316cc4" stroke="black" points="342.3,-758.67 338.8,-748.67 335.3,-758.67 342.3,-758.67"/>
</g>
<!-- pandas_util&#45;&gt;pandas -->
<g id="edge52" class="edge">
<title>pandas_util&#45;&gt;pandas</title><style>.edge>path:hover{stroke-width:8}</style>
<path fill="none" stroke="black" d="M404.65,-523.66C411.86,-521.31 419.58,-518.91 426.8,-516.85 490.26,-498.79 565.2,-481.42 608.63,-471.74"/>
<polygon fill="#3a69b0" stroke="black" points="609.44,-475.15 618.45,-469.57 607.93,-468.31 609.44,-475.15"/>
</g>
<!-- pandas_util__print_versions&#45;&gt;pandas -->
<g id="edge53" class="edge">
<title>pandas_util__print_versions&#45;&gt;pandas</title><style>.edge>path:hover{stroke-width:8}</style>
<path fill="none" stroke="black" d="M1236.58,-598.71C1227.49,-595.2 1217.89,-591.73 1208.8,-588.85 1143.84,-568.31 1120.11,-584.52 1059.8,-552.85 1049.76,-547.59 1049.7,-542.86 1040.8,-535.85"/>
</g>
<!-- pandas_util__tester -->
<g id="node34" class="node">
<title>pandas_util__tester</title><style>.edge>path:hover{stroke-width:8}</style>
<ellipse fill="#537bb6" stroke="black" cx="1700.8" cy="-617.84" rx="36.12" ry="28.98"/>
<text text-anchor="middle" x="1700.8" y="-626.34" font-family="Helvetica,sans-Serif" font-size="10.00" fill="#ffffff">pandas.</text>
<text text-anchor="middle" x="1700.8" y="-615.34" font-family="Helvetica,sans-Serif" font-size="10.00" fill="#ffffff">util.</text>
<text text-anchor="middle" x="1700.8" y="-604.34" font-family="Helvetica,sans-Serif" font-size="10.00" fill="#ffffff">_tester</text>
</g>
<!-- pandas_util__tester&#45;&gt;pandas -->
<g id="edge54" class="edge">
<title>pandas_util__tester&#45;&gt;pandas</title><style>.edge>path:hover{stroke-width:8}</style>
<path fill="none" stroke="black" d="M1685.7,-591.23C1674.21,-573.61 1656.96,-550.79 1636.8,-535.85"/>
</g>
<!-- tqdm -->
<g id="node35" class="node">
<title>tqdm</title><style>.edge>path:hover{stroke-width:8}</style>
<ellipse fill="#7e3091" stroke="black" cx="290.8" cy="-165.21" rx="27" ry="18"/>
<text text-anchor="middle" x="290.8" y="-162.71" font-family="Helvetica,sans-Serif" font-size="10.00" fill="#ffffff">tqdm</text>
</g>
<!-- tqdm&#45;&gt;check -->
<g id="edge55" class="edge">
<title>tqdm&#45;&gt;check</title><style>.edge>path:hover{stroke-width:8}</style>
<path fill="none" stroke="black" d="M313.09,-154.94C343.95,-142.1 399.86,-118.85 435.06,-104.2"/>
<polygon fill="#7e3091" stroke="black" points="436.52,-107.38 444.41,-100.31 433.83,-100.92 436.52,-107.38"/>
</g>
<!-- tqdm__monitor -->
<g id="node36" class="node">
<title>tqdm__monitor</title><style>.edge>path:hover{stroke-width:8}</style>
<ellipse fill="#a947c2" stroke="black" cx="444.8" cy="-390.85" rx="46.51" ry="18"/>
<text text-anchor="middle" x="444.8" y="-388.35" font-family="Helvetica,sans-Serif" font-size="10.00" fill="#ffffff">tqdm._monitor</text>
</g>
<!-- tqdm__monitor&#45;&gt;tqdm -->
<g id="edge56" class="edge">
<title>tqdm__monitor&#45;&gt;tqdm</title><style>.edge>path:hover{stroke-width:8}</style>
<path fill="none" stroke="black" d="M455.22,-373.25C474.07,-340.88 508.88,-268.47 474.8,-222.43 472.5,-219.33 377.75,-191.44 325.14,-176.15"/>
<polygon fill="#a947c2" stroke="black" points="325.8,-172.69 315.22,-173.27 323.85,-179.42 325.8,-172.69"/>
</g>
<!-- tqdm__monitor&#45;&gt;tqdm_std -->
<g id="edge57" class="edge">
<title>tqdm__monitor&#45;&gt;tqdm_std</title><style>.edge>path:hover{stroke-width:8}</style>
<path fill="none" stroke="black" d="M418.4,-375.86C397.11,-364.56 367.09,-348.64 344.5,-336.66"/>
<polygon fill="#a947c2" stroke="black" points="346.1,-333.55 335.62,-331.96 342.82,-339.74 346.1,-333.55"/>
</g>
<!-- tqdm__tqdm_pandas -->
<g id="node37" class="node">
<title>tqdm__tqdm_pandas</title><style>.edge>path:hover{stroke-width:8}</style>
<ellipse fill="#9e4cb3" stroke="black" cx="175.8" cy="-243.64" rx="56.64" ry="21.43"/>
<text text-anchor="middle" x="175.8" y="-246.64" font-family="Helvetica,sans-Serif" font-size="10.00" fill="#ffffff">tqdm.</text>
<text text-anchor="middle" x="175.8" y="-235.64" font-family="Helvetica,sans-Serif" font-size="10.00" fill="#ffffff">_tqdm_pandas</text>
</g>
<!-- tqdm__tqdm_pandas&#45;&gt;tqdm -->
<g id="edge58" class="edge">
<title>tqdm__tqdm_pandas&#45;&gt;tqdm</title><style>.edge>path:hover{stroke-width:8}</style>
<path fill="none" stroke="black" d="M202.47,-224.91C220.83,-212.71 245.14,-196.55 263.61,-184.28"/>
<polygon fill="#9e4cb3" stroke="black" points="265.77,-187.05 272.16,-178.6 261.89,-181.22 265.77,-187.05"/>
</g>
<!-- tqdm_cli -->
<g id="node38" class="node">
<title>tqdm_cli</title><style>.edge>path:hover{stroke-width:8}</style>
<ellipse fill="#9849ac" stroke="black" cx="70.8" cy="-243.64" rx="30.04" ry="18"/>
<text text-anchor="middle" x="70.8" y="-241.14" font-family="Helvetica,sans-Serif" font-size="10.00" fill="#ffffff">tqdm.cli</text>
</g>
<!-- tqdm_cli&#45;&gt;tqdm -->
<g id="edge59" class="edge">
<title>tqdm_cli&#45;&gt;tqdm</title><style>.edge>path:hover{stroke-width:8}</style>
<path fill="none" stroke="black" d="M91.93,-230.82C97.63,-227.87 103.87,-224.86 109.8,-222.43 159.46,-202.03 219.34,-184.8 256.24,-174.98"/>
<polygon fill="#9849ac" stroke="black" points="257.23,-178.34 266.01,-172.42 255.45,-171.57 257.23,-178.34"/>
</g>
<!-- tqdm_gui -->
<g id="node39" class="node">
<title>tqdm_gui</title><style>.edge>path:hover{stroke-width:8}</style>
<ellipse fill="#9e4cb3" stroke="black" cx="320.8" cy="-243.64" rx="31.58" ry="18"/>
<text text-anchor="middle" x="320.8" y="-241.14" font-family="Helvetica,sans-Serif" font-size="10.00" fill="#ffffff">tqdm.gui</text>
</g>
<!-- tqdm_gui&#45;&gt;tqdm -->
<g id="edge60" class="edge">
<title>tqdm_gui&#45;&gt;tqdm</title><style>.edge>path:hover{stroke-width:8}</style>
<path fill="none" stroke="black" d="M314.14,-225.68C310.3,-215.91 305.41,-203.44 301.09,-192.43"/>
<polygon fill="#9e4cb3" stroke="black" points="304.24,-190.89 297.33,-182.86 297.73,-193.45 304.24,-190.89"/>
</g>
<!-- tqdm_notebook -->
<g id="node40" class="node">
<title>tqdm_notebook</title><style>.edge>path:hover{stroke-width:8}</style>
<ellipse fill="#9e4cb3" stroke="black" cx="417.8" cy="-243.64" rx="47.86" ry="18"/>
<text text-anchor="middle" x="417.8" y="-241.14" font-family="Helvetica,sans-Serif" font-size="10.00" fill="#ffffff">tqdm.notebook</text>
</g>
<!-- tqdm_notebook&#45;&gt;tqdm -->
<g id="edge61" class="edge">
<title>tqdm_notebook&#45;&gt;tqdm</title><style>.edge>path:hover{stroke-width:8}</style>
<path fill="none" stroke="black" d="M393.61,-228.08C372.36,-215.29 341.42,-196.68 319.03,-183.21"/>
<polygon fill="#9e4cb3" stroke="black" points="320.69,-180.12 310.32,-177.96 317.08,-186.12 320.69,-180.12"/>
</g>
<!-- tqdm_std&#45;&gt;tqdm -->
<g id="edge62" class="edge">
<title>tqdm_std&#45;&gt;tqdm</title><style>.edge>path:hover{stroke-width:8}</style>
<path fill="none" stroke="black" d="M299.84,-302.28C292.38,-292.27 283.73,-278.61 279.8,-264.85 272.98,-241.01 277.3,-212.8 282.4,-192.67"/>
<polygon fill="#a723c8" stroke="black" points="285.79,-193.52 285.07,-182.95 279.04,-191.66 285.79,-193.52"/>
</g>
<!-- tqdm_std&#45;&gt;tqdm_cli -->
<g id="edge63" class="edge">
<title>tqdm_std&#45;&gt;tqdm_cli</title><style>.edge>path:hover{stroke-width:8}</style>
<path fill="none" stroke="black" d="M282.56,-312.16C242.31,-304.08 169.3,-287.71 109.8,-264.85 106.9,-263.74 103.94,-262.47 101.01,-261.12"/>
<polygon fill="#a723c8" stroke="black" points="102.38,-257.9 91.86,-256.64 99.3,-264.18 102.38,-257.9"/>
</g>
<!-- tqdm_std&#45;&gt;tqdm_gui -->
<g id="edge64" class="edge">
<title>tqdm_std&#45;&gt;tqdm_gui</title><style>.edge>path:hover{stroke-width:8}</style>
<path fill="none" stroke="black" d="M314.65,-300.87C315.59,-292.25 316.76,-281.56 317.82,-271.83"/>
<polygon fill="#a723c8" stroke="black" points="321.31,-272.1 318.92,-261.78 314.36,-271.34 321.31,-272.1"/>
</g>
<!-- tqdm_std&#45;&gt;tqdm_notebook -->
<g id="edge65" class="edge">
<title>tqdm_std&#45;&gt;tqdm_notebook</title><style>.edge>path:hover{stroke-width:8}</style>
<path fill="none" stroke="black" d="M332.54,-304.08C348.06,-293.26 369.94,-278.01 387.65,-265.66"/>
<polygon fill="#a723c8" stroke="black" points="389.76,-268.46 395.96,-259.87 385.75,-262.71 389.76,-268.46"/>
</g>
<!-- tqdm_version -->
<g id="node42" class="node">
<title>tqdm_version</title><style>.edge>path:hover{stroke-width:8}</style>
<ellipse fill="#a947c2" stroke="black" cx="41.8" cy="-318.85" rx="41.59" ry="18"/>
<text text-anchor="middle" x="41.8" y="-316.35" font-family="Helvetica,sans-Serif" font-size="10.00" fill="#ffffff">tqdm.version</text>
</g>
<!-- tqdm_version&#45;&gt;tqdm -->
<g id="edge66" class="edge">
<title>tqdm_version&#45;&gt;tqdm</title><style>.edge>path:hover{stroke-width:8}</style>
<path fill="none" stroke="black" d="M33.46,-300.98C24.51,-280.14 13.81,-244.73 31.8,-222.43 59.29,-188.33 189.16,-173.85 253.91,-168.68"/>
<polygon fill="#a947c2" stroke="black" points="254.38,-172.15 264.09,-167.9 253.85,-165.17 254.38,-172.15"/>
</g>
<!-- tqdm_version&#45;&gt;tqdm_cli -->
<g id="edge67" class="edge">
<title>tqdm_version&#45;&gt;tqdm_cli</title><style>.edge>path:hover{stroke-width:8}</style>
<path fill="none" stroke="black" d="M48.52,-300.87C52.06,-291.94 56.48,-280.79 60.44,-270.78"/>
<polygon fill="#a947c2" stroke="black" points="63.78,-271.86 64.21,-261.28 57.27,-269.28 63.78,-271.86"/>
</g>
</g>
</svg>
